    <svg
      width="185"
      height="57"
      viewBox="0 0 185 57"
      fill="#85C440"
      xmlns="http://www.w3.org/2000/svg"
    >
      <path
        d="M159.2,26.09c0,0.12,0.03,0.12,0.09,0.02c1.45-2.46,3.6-3.9,6.22-4.94c1.51-0.6,3.33-0.79,5-0.8
	c2.59-0.01,4.9,0.85,7.1,2.16c0.51,0.3,0.97,0.65,1.38,1.03c1.14,1.05,2.17,2.28,2.82,3.7c0.24,0.52,0.43,0.96,0.57,1.32
	c0.57,1.44,0.68,3.21,0.68,4.73c0,4.23,0.01,8.46,0,12.7c0,0.03-0.01,0.04-0.04,0.04l-1.81,0c-0.03,0-0.04-0.01-0.04-0.04
	c0-4.4,0-8.79,0-13.19c0-0.56-0.08-1.25-0.24-2.07c-0.71-3.68-3.16-6.26-6.56-7.66c-1.1-0.45-2.35-0.59-3.58-0.69
	c-2.87-0.23-5.68,0.79-7.95,2.51c-0.25,0.19-0.49,0.41-0.73,0.68c-0.3,0.33-0.62,0.66-0.86,1.01c-1.66,2.36-2.04,5.09-2.05,7.91
	c0,3.83,0,7.67,0,11.5c0,0.04-0.02,0.05-0.05,0.05l-1.81,0c-0.02,0-0.03-0.01-0.03-0.03c0,0,0,0,0,0l0-35.05
	c0-0.02,0.02-0.04,0.04-0.04l1.81,0c0.02,0,0.04,0.01,0.04,0.04L159.2,26.09z"
      />
      <path
        d="M25.85,40.43c0-0.01-0.01-0.02-0.02-0.02c-0.01,0-0.01,0-0.01,0.01c-1.38,2.09-3.44,3.82-5.8,4.73
	c-1.21,0.47-2.63,0.82-3.86,0.9c-1.09,0.07-2.31,0-3.67-0.19c-4.76-0.68-8.75-3.94-9.99-8.69c-0.41-1.58-0.72-3.26-0.57-4.87
	c0.11-1.21,0.43-2.49,0.81-3.69c0.18-0.59,0.4-1.12,0.66-1.59c1.49-2.75,3.76-4.67,6.82-5.74c1.16-0.41,2.3-0.67,3.42-0.79
	c0.35-0.04,1.06-0.02,2.11,0.04c4.1,0.24,7.37,1.98,9.79,5.22c0.09,0.12,0.14,0.28,0.19,0.39c0.08,0.18,0.12,0.18,0.12-0.03l0-15.04
	c0-0.03,0.02-0.05,0.05-0.05h1.69c0.04,0,0.06,0.02,0.06,0.06v34.94c0,0.02-0.02,0.03-0.03,0.03l0,0h-1.73
	c-0.02,0-0.04-0.01-0.04-0.04V40.43z M4.54,29.32c-0.36,1.14-0.61,2.34-0.6,3.55c0,0.12-0.03,0.25-0.02,0.38
	c0.05,0.79,0.04,1.52,0.14,2.13c0.57,3.58,2.62,6,5.8,7.64c0.49,0.25,1.01,0.45,1.56,0.6c4.38,1.19,9.07,0.17,12.01-3.45
	c0.51-0.63,0.82-1.08,1.15-1.77c1.82-3.9,1.56-8.24-0.92-11.76c-0.83-1.17-2.17-2.29-3.45-2.93c-4-1.98-8.79-1.69-12.37,1.06
	C6.39,25.88,5.09,27.57,4.54,29.32z"
      />
      <path
        d="M88.44,20.31h11.08c0.03,0,0.04,0.01,0.04,0.04l0,1.8c0,0.02-0.02,0.04-0.04,0.04c0,0,0,0,0,0l-11.1,0
	c-0.01,0-0.02,0.01-0.02,0.02v0c0,3.59,0,7.18,0,10.78c0,0.23,0.05,0.67,0.15,1.32c0.18,1.15,0.57,2.41,1.17,3.77
	c0.15,0.33,0.49,0.83,0.76,1.17c0.65,0.83,1.36,1.6,2.13,2.32c0.28,0.27,0.59,0.49,0.9,0.68c1.86,1.1,3.93,1.82,6.11,1.9
	c0.21,0.01,0.43,0.02,0.64,0.04c0.02,0,0.04,0.02,0.04,0.04v1.79c0,0.02-0.01,0.04-0.04,0.04c-3.71,0.03-6.93-1.2-9.65-3.67
	c-2.49-2.26-3.78-5.74-4.04-9.01c-0.03-0.39-0.05-0.96-0.05-1.72c0-6.86,0-13.73,0-20.59c0-0.03,0.02-0.05,0.05-0.05l1.8,0
	c0.02,0,0.03,0.01,0.03,0.03v9.22C88.4,20.29,88.41,20.31,88.44,20.31z"
      />
      <path
        d="M60.23,26.08c0.46-0.66,0.96-1.29,1.51-1.87c0.8-0.85,1.78-1.51,2.8-2.16c0.35-0.22,0.79-0.37,1.05-0.49
	c1.73-0.79,3.7-1.13,5.62-1.16c2.46-0.05,5.02,0.76,7.13,1.97c1.62,0.94,2.93,2.3,3.9,3.91c0.95,1.57,1.65,3.36,1.76,5.21
	c0.04,0.61,0.07,1.21,0.07,1.84c0,4.23,0,8.46,0,12.69c0,0.03-0.01,0.04-0.04,0.04h-1.79c-0.04,0-0.05-0.02-0.05-0.05
	c0-4.32,0-8.64,0-12.96c0-0.61-0.08-1.34-0.23-2.18c-0.69-3.7-3.03-6.27-6.46-7.7c-0.47-0.19-0.98-0.35-1.55-0.46
	c-1.02-0.2-1.96-0.32-2.81-0.35c-0.57-0.02-1.26,0.06-2.07,0.23c-1.04,0.22-2.05,0.53-3.02,0.95c-0.43,0.18-0.82,0.44-1.21,0.69
	c-2.1,1.34-3.41,3.33-4.15,5.69c-0.15,0.46-0.24,0.91-0.29,1.35c-0.13,1.19-0.18,2.29-0.18,3.59c0,3.72,0,7.45,0,11.17
	c0,0.02-0.01,0.03-0.03,0.03l-1.81,0c-0.03,0-0.05-0.02-0.05-0.05V20.35c0-0.03,0.01-0.04,0.04-0.04h1.8c0.03,0,0.04,0.01,0.04,0.04
	v5.72C60.2,26.11,60.21,26.11,60.23,26.08z"
      />
      <path
        d="M32.15,33.64c-0.06,2.26,0.68,4.32,1.92,6.18c0.25,0.37,0.54,0.7,0.87,1.02c1.17,1.09,2.56,2.15,4.11,2.64
	c1.57,0.5,3.01,0.79,4.72,0.67c2.99-0.22,5.58-1.27,7.56-3.57c1.32-1.54,2.12-3.1,2.38-5.03c0.01-0.05,0.05-0.08,0.09-0.08l1.84,0
	c0.04,0,0.08,0.03,0.08,0.07c0,0,0,0,0,0c-0.08,1.71-0.86,3.38-1.67,4.85c-0.24,0.42-0.5,0.81-0.8,1.16
	c-1.28,1.48-2.82,2.62-4.59,3.44c-0.5,0.23-1.04,0.42-1.63,0.57c-1.21,0.3-2.36,0.5-3.64,0.49c-0.65,0-1.35,0.02-1.96-0.04
	c-2.04-0.18-3.98-0.9-5.74-1.94c-0.36-0.22-0.71-0.48-1.04-0.78c-0.88-0.8-1.66-1.63-2.36-2.5c-0.48-0.6-0.78-1.26-1.11-2.09
	c-1.52-3.78-1.36-7.72,0.27-11.4c0.25-0.56,0.53-1.06,0.84-1.5c1.3-1.82,3.05-3.19,5.09-4.11c1.36-0.62,2.97-0.91,4.45-1.12
	c0.6-0.08,1.17-0.11,1.72-0.09c3.25,0.15,6.1,1.29,8.54,3.41c0.25,0.21,0.49,0.48,0.74,0.79c0.42,0.53,0.88,1.06,1.21,1.62
	c1.32,2.22,1.92,4.63,1.82,7.26c0,0.03-0.01,0.04-0.04,0.04l-23.61,0C32.16,33.59,32.15,33.61,32.15,33.64z M53.81,31.67
	c-0.18-1.28-0.54-2.75-1.19-3.88c-1.38-2.38-3.4-3.96-6.06-4.74c-1.29-0.38-2.56-0.67-3.86-0.6c-1.25,0.06-2.55,0.4-3.71,0.72
	c-0.41,0.11-0.78,0.26-1.11,0.44c-0.68,0.36-1.36,0.82-2.04,1.38c-0.64,0.52-1.09,0.93-1.34,1.24c-0.6,0.74-1.14,1.69-1.62,2.85
	c-0.33,0.8-0.51,1.65-0.56,2.55c0,0.06,0.02,0.08,0.08,0.08h21.4C53.8,31.71,53.81,31.69,53.81,31.67z"
      />
      <path
        d="M104.79,33.64c-0.06,2.28,0.69,4.39,1.97,6.25c0.24,0.35,0.53,0.68,0.86,0.99c1.35,1.25,2.8,2.28,4.65,2.77
	c0.53,0.14,0.92,0.24,1.16,0.29c1.77,0.39,3.68,0.26,5.41-0.19c1.94-0.5,3.58-1.49,4.92-2.97c1.43-1.57,2.29-3.2,2.58-5.22
	c0.01-0.07,0.05-0.1,0.12-0.1l1.81,0c0.04,0,0.08,0.03,0.08,0.08c0,0,0,0,0,0c-0.08,1.7-0.84,3.34-1.65,4.81
	c-0.23,0.42-0.49,0.8-0.79,1.14c-1.29,1.51-2.84,2.67-4.64,3.5c-0.5,0.23-1.04,0.42-1.63,0.57c-1.2,0.3-2.36,0.5-3.62,0.49
	c-0.63,0-1.32,0.02-1.91-0.03c-2.11-0.18-4.11-0.92-5.91-2.01c-0.33-0.2-0.65-0.44-0.96-0.73c-0.91-0.85-1.8-1.75-2.54-2.76
	c-0.22-0.3-0.4-0.61-0.55-0.94c-0.82-1.77-1.29-3.62-1.4-5.53c-0.14-2.31,0.4-4.65,1.34-6.77c0.24-0.55,0.52-1.05,0.84-1.5
	c1.59-2.23,4.07-3.98,6.74-4.66c1.48-0.38,3.09-0.72,4.62-0.63c3.18,0.19,5.96,1.3,8.33,3.33c0.27,0.23,0.54,0.52,0.81,0.85
	c0.43,0.53,0.89,1.07,1.22,1.63c1.32,2.21,1.92,4.63,1.82,7.25c0,0.03-0.01,0.04-0.04,0.04l-23.61,0
	C104.81,33.59,104.79,33.61,104.79,33.64z M106.72,26.79c-0.95,1.4-1.79,3.16-1.76,4.89c0,0.02,0.01,0.03,0.03,0.03h21.44
	c0.03,0,0.04-0.01,0.03-0.04c-0.22-1.59-0.69-3.21-1.6-4.55c-1.86-2.72-4.67-4.11-7.9-4.59c-1.04-0.15-2.12-0.11-3.23,0.13
	c-0.86,0.18-1.61,0.36-2.23,0.54c-1.37,0.38-2.78,1.5-3.81,2.46C107.31,26.01,106.99,26.38,106.72,26.79z"
      />
      <path
        d="M133.79,41.65c-1.02-1.19-1.65-2.68-2.11-4.13c-0.31-0.99-0.46-2.17-0.64-3.26c-0.06-0.37-0.09-0.72-0.07-1.04
	c0.07-1.86,0.51-3.72,1.17-5.47c0.12-0.33,0.29-0.66,0.5-1c0.38-0.61,0.77-1.28,1.18-1.8c1.68-2.14,3.94-3.34,6.59-4.05
	c0.36-0.1,0.8-0.18,1.3-0.23c1.08-0.12,2.07-0.19,2.98-0.19c3.37,0,6.74,0,10.11,0c0.03,0,0.05,0.02,0.05,0.05l0,1.87
	c0,0.02-0.02,0.03-0.03,0.03c-3.3,0-6.6,0.01-9.91,0.02c-2.14,0.01-4.8,0.21-6.65,1.41c-0.22,0.15-0.44,0.28-0.66,0.41
	c-1.89,1.09-3.08,3.12-3.87,5.14c-0.45,1.17-0.62,2.54-0.7,3.69c-0.03,0.36,0.05,0.83,0.08,1.16c0.16,1.52,0.5,3,1.21,4.36
	c1.35,2.57,3.8,4.67,6.7,5.19c1.42,0.25,2.85,0.38,4.29,0.38c3.15,0,6.31,0,9.48-0.01c0.03,0,0.05,0.02,0.05,0.05l0,1.78
	c0,0.03-0.01,0.04-0.04,0.04c-3.69,0-7.38,0-11.07,0c-0.8,0-1.37-0.02-1.72-0.05C138.72,45.71,135.92,44.14,133.79,41.65z"
      />
    </svg>
